<svg xmlns="http://www.w3.org/2000/svg" version="1.1" xmlns:xlink="http://www.w3.org/1999/xlink" xmlns:svgjs="http://svgjs.dev/svgjs" width="1440" height="560" preserveAspectRatio="none" viewBox="0 0 1440 560"><g mask="url(&quot;#SvgjsMask1035&quot;)" fill="none"><rect width="1440" height="560" x="0" y="0" fill="rgba(255, 247, 237, 1)"></rect><path d="M0,487.957C93.735,485.492,190.989,469.935,265.055,412.433C336.545,356.93,351.567,259.724,395.729,180.724C444.744,93.041,551.491,22.179,538.923,-77.485C526.38,-176.946,414.086,-228.203,336.201,-291.32C270.764,-344.35,199.095,-381.538,121.967,-415.383C33.492,-454.207,-54.914,-529.942,-147.917,-503.758C-240.879,-477.586,-273.909,-364.82,-331.91,-287.601C-385.416,-216.366,-455.386,-155.2,-475.001,-68.295C-495.399,22.075,-477.266,116.207,-442.43,202.051C-406.532,290.514,-354.351,374.796,-274.167,426.612C-193.886,478.491,-95.552,490.47,0,487.957" fill="#ffc57c"></path><path d="M1440 829.037C1507.337 827.434 1577.307 898.191 1634.972 863.383 1692.206 828.835 1667.788 737.489 1693.7359999999999 675.877 1718.575 616.899 1777.903 574.351 1783.546 510.605 1789.7440000000001 440.601 1769.683 367.238 1725.929 312.241 1681.423 256.299 1614 218.43599999999998 1543.2069999999999 208.50799999999998 1476.458 199.147 1415.068 236.40699999999998 1351.848 259.78 1293.159 281.478 1232.784 298.226 1186.536 340.372 1136.468 386 1086.917 440.829 1079.316 508.141 1071.77 574.963 1119.633 632.388 1146.603 693.99 1174.066 756.718 1176.767 844.178 1238.97 872.809 1302.556 902.077 1370.022 830.703 1440 829.037" fill="#ffffff"></path></g><defs><mask id="SvgjsMask1035"><rect width="1440" height="560" fill="#ffffff"></rect></mask></defs></svg>